<svg xmlns="http://www.w3.org/2000/svg"><symbol id="bullhorn" viewBox="0 0 576 512"><path d="M576 224c0-19.4-13.7-35.5-32-39.2V48c0-26.5-21.5-48-48-48-65 56-158 128-288 128H48c-26.5 0-48 21.5-48 48v96c0 26.5 21.5 48 48 48h25.8c-8.1 61.1 13.3 111.5 27.5 157.3 1.2 3.7 3.2 7.1 6 9.8 36.7 36.5 127.7 34.8 153-18.3 4.7-9.9 2.1-21.6-6.2-28.6-35.6-29.9-38.1-30-29.9-44.2 5.2-9.1 3.9-20.5-3.2-28.2-9.8-10.6-4.6-38.2 11.1-46.9C349.6 329 435.1 395.5 496 448c26.5 0 48-21.5 48-48V263.2c18.3-3.7 32-19.8 32-39.2zM48 272v-96h160v96H48zm97 184.1c-14.5-45.2-31.3-86.8-22.6-136.1H174c-8.2 21.5-8.3 46.1 1.9 66.2-11 31.2 3.3 53.4 26.5 73.5-17.9 7.1-43.8 5-57.4-3.6zm351-70.6c-71.8-57.6-148.4-99.3-240-110.5V173c91.6-11.3 168.1-52.9 240-110.5v323z"/></symbol><symbol id="calendar" viewBox="0 0 21.32 23.68"><path d="M19 2.37h-1.24V0h-2.37v2.37H5.92V0H3.55v2.37H2.37A2.36 2.36 0 000 4.74v16.58a2.37 2.37 0 002.37 2.36H19a2.37 2.37 0 002.37-2.36V4.74A2.37 2.37 0 0019 2.37zm0 19H2.37v-13H19zM4.74 10.66h5.92v5.92H4.74z"/></symbol><symbol id="cart" viewBox="0 0 576 512"><path d="M528.12 301.319l47.273-208C578.806 78.301 567.391 64 551.99 64H159.208l-9.166-44.81C147.758 8.021 137.93 0 126.529 0H24C10.745 0 0 10.745 0 24v16c0 13.255 10.745 24 24 24h69.883l70.248 343.435C147.325 417.1 136 435.222 136 456c0 30.928 25.072 56 56 56s56-25.072 56-56c0-15.674-6.447-29.835-16.824-40h209.647C430.447 426.165 424 440.326 424 456c0 30.928 25.072 56 56 56s56-25.072 56-56c0-22.172-12.888-41.332-31.579-50.405l5.517-24.276c3.413-15.018-8.002-29.319-23.403-29.319H218.117l-6.545-32h293.145c11.206 0 20.92-7.754 23.403-18.681z"/></symbol><symbol id="cart-empty" viewBox="0 0 576 512"><path d="M528.1 301.3l47.3-208c3.4-15-8-29.3-23.4-29.3H159.2L150 19.2C147.8 8 137.9 0 126.5 0H24C10.7 0 0 10.7 0 24v16c0 13.3 10.7 24 24 24h69.9l70.2 343.4c-16.8 9.7-28.1 27.8-28.1 48.6 0 30.9 25.1 56 56 56s56-25.1 56-56c0-15.7-6.4-29.8-16.8-40h209.6c-10.4 10.2-16.8 24.3-16.8 40 0 30.9 25.1 56 56 56s56-25.1 56-56c0-22.2-12.9-41.3-31.6-50.4l5.5-24.3c3.4-15-8-29.3-23.4-29.3H218.1l-6.5-32h293.1c11.2 0 20.9-7.8 23.4-18.7zM256.5 96c17.7 0 32 14.3 32 32s-14.3 32-32 32-32-14.3-32-32 14.3-32 32-32zm180.8 186.3c-4.5 3.8-10 5.6-15.4 5.6-6.9 0-13.7-2.9-18.5-8.6-16.6-20-41-31.4-66.9-31.4-25.9 0-50.3 11.5-66.9 31.4-8.5 10.2-23.6 11.6-33.8 3.1s-11.6-23.6-3.1-33.8c25.8-30.9 63.6-48.6 103.8-48.6s78 17.7 103.9 48.5c8.4 10.2 7.1 25.3-3.1 33.8zM416.5 160c-17.7 0-32-14.3-32-32s14.3-32 32-32 32 14.3 32 32-14.3 32-32 32z"/></symbol><symbol id="check" viewBox="0 0 512 512"><path d="M435.848 83.466L172.804 346.51l-96.652-96.652c-4.686-4.686-12.284-4.686-16.971 0l-28.284 28.284c-4.686 4.686-4.686 12.284 0 16.971l133.421 133.421c4.686 4.686 12.284 4.686 16.971 0l299.813-299.813c4.686-4.686 4.686-12.284 0-16.971l-28.284-28.284c-4.686-4.686-12.284-4.686-16.97 0z"/></symbol><symbol id="close" viewBox="0 0 384 512"><path d="M231.6 256l130.1-130.1c4.7-4.7 4.7-12.3 0-17l-22.6-22.6c-4.7-4.7-12.3-4.7-17 0L192 216.4 61.9 86.3c-4.7-4.7-12.3-4.7-17 0l-22.6 22.6c-4.7 4.7-4.7 12.3 0 17L152.4 256 22.3 386.1c-4.7 4.7-4.7 12.3 0 17l22.6 22.6c4.7 4.7 12.3 4.7 17 0L192 295.6l130.1 130.1c4.7 4.7 12.3 4.7 17 0l22.6-22.6c4.7-4.7 4.7-12.3 0-17L231.6 256z"/></symbol><symbol id="cpd" viewBox="0 0 512 512"><path d="M0 256.1C0 198.6 43.5 162 91.8 162c49.9 0 75.5 30.5 82.6 59.7l-33.1 10.4c-4.3-17.3-18.3-36.4-49.6-36.4-26.9 0-55.4 19.3-55.4 60.3 0 38.4 27 59.5 55.9 59.5 30.8 0 45.8-20.1 50.6-36.9l32.8 9.9c-6.9 27.7-32.8 61.3-83.4 61.3-50.3.1-92.2-36.3-92.2-93.7zm240.1 22.1v67.9H205V165.8h67.4c35.6 0 59.2 23.6 59.2 56.2 0 32.8-23.6 56.2-59.2 56.2h-32.3zm28-30.2c17.5 0 28.2-10.2 28.2-25.7 0-16-10.7-25.9-28.2-25.9h-27.7V248h27.7zm90.3 98.1V165.8H423c51.4 0 89 33.3 89 90.3s-37.9 90-89.2 90h-64.4zm63.1-32.6c29.5 0 54.1-18.3 54.1-57.5s-24.4-57.7-53.9-57.7h-28.2v115.2h28z"/></symbol><symbol id="credit-card" viewBox="0 0 576 512"><path d="M527.9 32H48.1C21.5 32 0 53.5 0 80v352c0 26.5 21.5 48 48.1 48h479.8c26.6 0 48.1-21.5 48.1-48V80c0-26.5-21.5-48-48.1-48zM54.1 80h467.8c3.3 0 6 2.7 6 6v42H48.1V86c0-3.3 2.7-6 6-6zm467.8 352H54.1c-3.3 0-6-2.7-6-6V256h479.8v170c0 3.3-2.7 6-6 6zM192 332v40c0 6.6-5.4 12-12 12h-72c-6.6 0-12-5.4-12-12v-40c0-6.6 5.4-12 12-12h72c6.6 0 12 5.4 12 12zm192 0v40c0 6.6-5.4 12-12 12H236c-6.6 0-12-5.4-12-12v-40c0-6.6 5.4-12 12-12h136c6.6 0 12 5.4 12 12z"/></symbol><symbol id="database" viewBox="0 0 448 512"><path d="M224 32c106 0 192 28.75 192 64v32c0 35.25-86 64-192 64S32 163.25 32 128V96c0-35.25 86-64 192-64m192 149.5V224c0 35.25-86 64-192 64S32 259.25 32 224v-42.5c41.25 29 116.75 42.5 192 42.5s150.749-13.5 192-42.5m0 96V320c0 35.25-86 64-192 64S32 355.25 32 320v-42.5c41.25 29 116.75 42.5 192 42.5s150.749-13.5 192-42.5m0 96V416c0 35.25-86 64-192 64S32 451.25 32 416v-42.5c41.25 29 116.75 42.5 192 42.5s150.749-13.5 192-42.5M224 0C145.858 0 0 18.801 0 96v320c0 77.338 146.096 96 224 96 78.142 0 224-18.801 224-96V96c0-77.338-146.096-96-224-96z"/></symbol><symbol id="download" viewBox="0 0 448 512"><path d="M11 40q-1.2 0-2.1-.9Q8 38.2 8 37v-7.15h3V37h26v-7.15h3V37q0 1.2-.9 2.1-.9.9-2.1.9zm13-7.65l-9.65-9.65 2.15-2.15 6 6V8h3v18.55l6-6 2.15 2.15z"/></symbol><symbol id="eye" viewBox="0 0 576 512"><path d="M569.354 231.631C512.969 135.949 407.81 72 288 72 168.14 72 63.004 135.994 6.646 231.631a47.999 47.999 0 000 48.739C63.031 376.051 168.19 440 288 440c119.86 0 224.996-63.994 281.354-159.631a47.997 47.997 0 000-48.738zM288 392c-75.162 0-136-60.827-136-136 0-75.162 60.826-136 136-136 75.162 0 136 60.826 136 136 0 75.162-60.826 136-136 136zm104-136c0 57.438-46.562 104-104 104s-104-46.562-104-104c0-17.708 4.431-34.379 12.236-48.973l-.001.032c0 23.651 19.173 42.823 42.824 42.823s42.824-19.173 42.824-42.823c0-23.651-19.173-42.824-42.824-42.824l-.032.001C253.621 156.431 270.292 152 288 152c57.438 0 104 46.562 104 104z"/></symbol><symbol id="eye-slash" viewBox="0 0 576 512"><path d="M286.693 391.984l32.579 46.542A333.958 333.958 0 01288 440C168.19 440 63.031 376.051 6.646 280.369a47.999 47.999 0 010-48.739c24.023-40.766 56.913-75.775 96.024-102.537l57.077 81.539C154.736 224.82 152 240.087 152 256c0 74.736 60.135 135.282 134.693 135.984zm282.661-111.615c-31.667 53.737-78.747 97.46-135.175 125.475l.011.015 41.47 59.2c7.6 10.86 4.96 25.82-5.9 33.42l-13.11 9.18c-10.86 7.6-25.82 4.96-33.42-5.9L100.34 46.94c-7.6-10.86-4.96-25.82 5.9-33.42l13.11-9.18c10.86-7.6 25.82-4.96 33.42 5.9l51.038 72.617C230.68 75.776 258.905 72 288 72c119.81 0 224.969 63.949 281.354 159.631a48.002 48.002 0 010 48.738zM424 256c0-75.174-60.838-136-136-136-17.939 0-35.056 3.473-50.729 9.772l19.299 27.058c25.869-8.171 55.044-6.163 80.4 7.41h-.03c-23.65 0-42.82 19.17-42.82 42.82 0 23.626 19.147 42.82 42.82 42.82 23.65 0 42.82-19.17 42.82-42.82v-.03c18.462 34.49 16.312 77.914-8.25 110.95v.01l19.314 27.061C411.496 321.2 424 290.074 424 256zM262.014 356.727l-77.53-110.757c-5.014 52.387 29.314 98.354 77.53 110.757z"/></symbol><symbol id="exclaim" viewBox="0 0 192 512"><path d="M176 432c0 44.112-35.888 80-80 80s-80-35.888-80-80 35.888-80 80-80 80 35.888 80 80zM25.26 25.199l13.6 272C39.499 309.972 50.041 320 62.83 320h66.34c12.789 0 23.331-10.028 23.97-22.801l13.6-272C167.425 11.49 156.496 0 142.77 0H49.23C35.504 0 24.575 11.49 25.26 25.199z"/></symbol><symbol id="heartbeat" viewBox="0 0 512 512"><path d="M468.7 76.5C423.6 32.2 375 32 362.3 32c-12.7 0-61.5.2-106.3 44.4C211.3 32.3 162.5 32 149.7 32c-12.7 0-61.4.2-106.4 44.5C15.4 104 0 140.7 0 179.9 0 214.1 12.3 246 33.8 272h120.8l29.9-71.8 56.9 126.4c5.5 12.3 22.9 12.7 28.9.6l49.7-99.4 22.1 44.2h136c21.5-26 33.8-57.9 33.8-92.1.1-39.2-15.3-75.9-43.2-103.4zM462.5 240H361.9l-27.6-55.2c-5.9-11.8-22.7-11.8-28.6 0l-48.9 97.9-58.2-129.3c-5.8-12.8-24-12.5-29.4.4L133.3 240H49.5c-9.2-14.6-42.6-82.7 18.3-142.7C90.4 75.1 120 64 149.7 64c33.9 0 54.5 6.3 106.3 57.3C311 67.1 330.5 64 362.3 64c29.7 0 59.3 11.1 81.8 33.3 61 60.1 27.5 128.2 18.4 142.7zM268.7 443.4c-6.2 6.1-16.2 6.1-22.4 0L108.9 304H64l159.9 162.2c18.7 18.5 48.6 18.4 67.3 0L448 304h-44.5L268.7 443.4z"/></symbol><symbol id="id-card" viewBox="0 0 512 512"><path d="M404 256H300c-6.627 0-12-5.373-12-12v-16c0-6.627 5.373-12 12-12h104c6.627 0 12 5.373 12 12v16c0 6.627-5.373 12-12 12zm12 60v-16c0-6.627-5.373-12-12-12H300c-6.627 0-12 5.373-12 12v16c0 6.627 5.373 12 12 12h104c6.627 0 12-5.373 12-12zm96-204v288c0 26.51-21.49 48-48 48H48c-26.51 0-48-21.49-48-48V112c0-26.51 21.49-48 48-48h416c26.51 0 48 21.49 48 48zm-48 282V144H48v250a6 6 0 006 6h404a6 6 0 006-6zM176 192c27.614 0 50 22.386 50 50s-22.386 50-50 50-50-22.386-50-50 22.386-50 50-50zm57.276 104.319l-22.285-5.571c-23.413 16.841-51.793 13.083-69.981 0l-22.285 5.571C105.369 299.658 96 311.657 96 325.423V337c0 8.284 6.716 15 15 15h130c8.284 0 15-6.716 15-15v-11.577c0-13.766-9.369-25.765-22.724-29.104z"/></symbol><symbol id="leaf-heart" viewBox="0 0 576 512"><path d="M546.2 9.7c-5.6-12.5-21.6-13-28.3-1.2C486.9 62.4 431.4 96 368 96h-80C182 96 96 182 96 288c0 19.2 2.9 37.7 8.1 55.1C31.6 399.5 4.3 463.2 2.4 468c-6.6 16.3 1.2 34.9 17.5 41.6 16.4 6.8 35-1.1 41.8-17.3 1.5-3.6 20.9-47.9 71.9-90.6 32.4 43.9 94 85.8 174.9 77.2C465.5 467.5 576 326.7 576 154.3c0-50.2-10.8-102.2-29.8-144.6zM430.6 294.4L345.9 380c-5.5 5.5-14.3 5.5-19.8 0l-84.7-85.6c-24.6-24.9-23.2-66.1 4.3-89.1 24-20 59.6-16.4 81.6 5.8l8.6 8.7 8.6-8.7c22-22.2 57.7-25.8 81.6-5.8 27.6 22.9 29.1 64.2 4.5 89.1z"/></symbol><symbol id="map-pin" viewBox="0 0 17.43 26.14"><path d="M16.86 11.76l-6.19 13.17a2.18 2.18 0 01-2 1.21 2.13 2.13 0 01-1.94-1.21L.56 11.76a7.19 7.19 0 01-.56-3 8.72 8.72 0 0117.43 0 7.05 7.05 0 01-.57 3zm-8.15-7.4a4.36 4.36 0 104.36 4.35 4.35 4.35 0 00-4.36-4.35z"/></symbol><symbol id="plus" viewBox="0 0 384 512"><path d="M368 224H224V80c0-8.84-7.16-16-16-16h-32c-8.84 0-16 7.16-16 16v144H16c-8.84 0-16 7.16-16 16v32c0 8.84 7.16 16 16 16h144v144c0 8.84 7.16 16 16 16h32c8.84 0 16-7.16 16-16V288h144c8.84 0 16-7.16 16-16v-32c0-8.84-7.16-16-16-16z"/></symbol><symbol id="price" viewBox="0 0 320 512"><path d="M308 360h-30.284c-6.627 0-12 5.373-12 12v56.835H112V280h100c6.627 0 12-5.373 12-12v-24c0-6.627-5.373-12-12-12H112v-77.081c0-37.438 26.786-67.388 72.958-67.388 25.94 0 48.692 11.882 60.552 19.451 5.141 3.28 11.923 2.156 15.758-2.586l19.658-24.305c4.35-5.378 3.262-13.296-2.365-17.32C262.736 51.456 229.027 32 184.334 32 105.716 32 48 83.164 48 152.423V232H20c-6.627 0-12 5.373-12 12v24c0 6.627 5.373 12 12 12h28v148.835H12c-6.627 0-12 5.373-12 12V468c0 6.627 5.373 12 12 12h296c6.627 0 12-5.373 12-12v-96c0-6.627-5.373-12-12-12z"/></symbol><symbol id="search" viewBox="0 0 512 512"><path d="M508.5 468.9L387.1 347.5c-2.3-2.3-5.3-3.5-8.5-3.5h-13.2c31.5-36.5 50.6-84 50.6-136C416 93.1 322.9 0 208 0S0 93.1 0 208s93.1 208 208 208c52 0 99.5-19.1 136-50.6v13.2c0 3.2 1.3 6.2 3.5 8.5l121.4 121.4c4.7 4.7 12.3 4.7 17 0l22.6-22.6c4.7-4.7 4.7-12.3 0-17zM208 368c-88.4 0-160-71.6-160-160S119.6 48 208 48s160 71.6 160 160-71.6 160-160 160z"/></symbol><symbol id="specialties" viewBox="0 0 512 512"><path d="M512 128V96c0-6.6-5.4-12-12-12H204c-6.6 0-12 5.5-12 12.2V128c0 6.6 5.4 12 12 12h296c6.6 0 12-5.4 12-12zm0 160v-32c0-6.6-5.4-12-12-12H204c-6.6 0-12 5.4-12 12v32c0 6.6 5.4 12 12 12h296c6.6 0 12-5.4 12-12zm0 160v-32c0-6.6-5.4-12-12-12H204c-6.6 0-12 5.4-12 12v32c0 6.6 5.4 12 12 12h296c6.6 0 12-5.4 12-12zM162.1 64.8l-92 91.8c-4.7 4.7-12.3 4.7-17 0l-12.4-12.4-37.2-37.5c-4.7-4.7-4.7-12.3 0-17l12.4-12.4c4.7-4.7 12.3-4.7 17 0l28.8 29.2 71.1-71.1c4.7-4.7 12.3-4.7 17 0l12.4 12.4c4.6 4.8 4.6 12.4-.1 17zm0 159.9l-92 92c-4.7 4.7-12.3 4.7-17 0l-12.4-12.4-37.2-37.7c-4.7-4.7-4.7-12.3 0-17l12.4-12.4c4.7-4.7 12.3-4.7 17 0l28.8 29.2 71.1-71.1c4.7-4.7 12.3-4.7 17 0l12.4 12.4c4.6 4.7 4.6 12.3-.1 17zM64 384c-26.5 0-47.6 21.5-47.6 48s21.1 48 47.6 48 48-21.5 48-48-21.5-48-48-48z"/></symbol><symbol id="star" viewBox="0 0 576 512"><path d="M259.3 17.8L194 150.2 47.9 171.5c-26.2 3.8-36.7 36.1-17.7 54.6l105.7 103-25 145.5c-4.5 26.3 23.2 46 46.4 33.7L288 439.6l130.7 68.7c23.2 12.2 50.9-7.4 46.4-33.7l-25-145.5 105.7-103c19-18.5 8.5-50.8-17.7-54.6L382 150.2 316.7 17.8c-11.7-23.6-45.6-23.9-57.4 0z"/></symbol><symbol id="tags" viewBox="0 0 640 512"><path d="M625.941 293.823L421.823 497.941c-18.746 18.746-49.138 18.745-67.882 0l-.36-.36L592 259.882 331.397 0h48.721a48 48 0 0133.941 14.059l211.882 211.882c18.745 18.745 18.745 49.137 0 67.882zm-128 0L293.823 497.941C284.451 507.314 272.166 512 259.882 512c-12.284 0-24.569-4.686-33.941-14.059L14.059 286.059A48 48 0 010 252.118V48C0 21.49 21.49 0 48 0h204.118a47.998 47.998 0 0133.941 14.059l211.882 211.882c18.745 18.745 18.745 49.137 0 67.882zM464 259.882L252.118 48H48v204.118l211.886 211.878L464 259.882zM144 96c-26.51 0-48 21.49-48 48s21.49 48 48 48 48-21.49 48-48-21.49-48-48-48z"/></symbol><symbol id="trash" viewBox="0 0 448 512"><path d="M192 188v216c0 6.627-5.373 12-12 12h-24c-6.627 0-12-5.373-12-12V188c0-6.627 5.373-12 12-12h24c6.627 0 12 5.373 12 12zm100-12h-24c-6.627 0-12 5.373-12 12v216c0 6.627 5.373 12 12 12h24c6.627 0 12-5.373 12-12V188c0-6.627-5.373-12-12-12zm132-96c13.255 0 24 10.745 24 24v12c0 6.627-5.373 12-12 12h-20v336c0 26.51-21.49 48-48 48H80c-26.51 0-48-21.49-48-48V128H12c-6.627 0-12-5.373-12-12v-12c0-13.255 10.745-24 24-24h74.411l34.018-56.696A48 48 0 01173.589 0h100.823a48 48 0 0141.16 23.304L349.589 80H424zm-269.611 0h139.223L276.16 50.913A6 6 0 00271.015 48h-94.028a6 6 0 00-5.145 2.913L154.389 80zM368 128H80v330a6 6 0 006 6h276a6 6 0 006-6V128z"/></symbol><symbol id="unlock" viewBox="0 0 448 512"><path d="M400 240H128v-94.8c0-52.8 42.1-96.7 95-97.2 53.4-.6 97 42.7 97 96v24c0 13.3 10.7 24 24 24s24-10.7 24-24v-22.6C368 65.8 304 .2 224.3 0 144.8-.2 80 64.5 80 144v96H48c-26.5 0-48 21.5-48 48v176c0 26.5 21.5 48 48 48h352c26.5 0 48-21.5 48-48V288c0-26.5-21.5-48-48-48zm0 224H48V288h352v176zm-176-32c-15.5 0-28-12.5-28-28v-56c0-15.5 12.5-28 28-28s28 12.5 28 28v56c0 15.5-12.5 28-28 28z"/></symbol><symbol id="user-circle" viewBox="0 0 512 512"><path d="M256 8C119.033 8 8 119.033 8 256s111.033 248 248 248 248-111.033 248-248S392.967 8 256 8zm0 48c110.457 0 200 89.543 200 200 0 36.982-10.049 71.611-27.548 101.328-7.072-25.444-25.663-54.208-63.93-65.374C377.207 271.782 384 248.414 384 224c0-70.689-57.189-128-128-128-70.689 0-128 57.19-128 128 0 24.414 6.793 47.783 19.478 67.954-38.299 11.175-56.876 39.913-63.938 65.362C66.046 327.601 56 292.976 56 256c0-110.457 89.543-200 200-200zm80 168c0 44.183-35.817 80-80 80s-80-35.817-80-80 35.817-80 80-80 80 35.817 80 80zM128 409.669v-27.758c0-20.41 13.53-38.348 33.156-43.955l24.476-6.993C206.342 344.648 230.605 352 256 352s49.658-7.352 70.369-21.038l24.476 6.993C370.47 343.563 384 361.5 384 381.911v27.758C349.315 438.592 304.693 456 256 456s-93.315-17.408-128-46.331z"/></symbol><symbol id="parking" viewBox="0 0 448 512"><path fill="currentColor" d="M400 32H48C21.5 32 0 53.5 0 80v352c0 26.5 21.5 48 48 48h352c26.5 0 48-21.5 48-48V80c0-26.5-21.5-48-48-48zm0 394c0 3.3-2.7 6-6 6H54c-3.3 0-6-2.7-6-6V86c0-3.3 2.7-6 6-6h340c3.3 0 6 2.7 6 6v340zM232 135.9h-80c-8.8 0-16 7.2-16 16v216c0 8.8 7.2 16 16 16h16c8.8 0 16-7.2 16-16v-56h48c48.5 0 88-39.5 88-88 .1-48.5-39.4-88-88-88zm0 128.1h-48v-80h48c22.1 0 40 17.9 40 40s-17.9 40-40 40z"/></symbol><symbol id="wifi" viewBox="0 0 640 512"><path fill="currentColor" d="M320 368c17.64 0 32 14.36 32 32s-14.36 32-32 32-32-14.36-32-32 14.35-32 32-32m0-48c-44.18 0-80 35.82-80 80s35.82 80 80 80 80-35.82 80-80-35.82-80-80-80zm204.69-31.83c4.62-4.87 4.38-12.64-.59-17.15-115.74-105.32-292.41-105.38-408.22 0-4.96 4.51-5.2 12.28-.59 17.15l16.47 17.37c4.46 4.71 11.81 4.95 16.62.6 97.44-88.13 245.68-88.21 343.22 0 4.81 4.35 12.16 4.1 16.62-.6l16.47-17.37zm111.42-133.98C457.86-8.86 181.84-8.59 3.89 154.19c-4.94 4.52-5.22 12.14-.57 16.95l16.6 17.18c4.52 4.68 12.01 4.93 16.81.54 159.59-145.79 406.82-145.91 566.54 0 4.81 4.39 12.29 4.13 16.81-.54l16.6-17.18c4.65-4.81 4.37-12.44-.57-16.95z"/></symbol><symbol id="accessible" viewBox="0 0 448 512"><path fill="currentColor" d="M423.9 255.8L411 413.1c-3.3 40.7-63.9 35.1-60.6-4.9l10-122.5-41.1 2.3c10.1 20.7 15.8 43.9 15.8 68.5 0 41.2-16.1 78.7-42.3 106.5l-39.3-39.3c57.9-63.7 13.1-167.2-74-167.2-25.9 0-49.5 9.9-67.2 26L73 243.2c22-20.7 50.1-35.1 81.4-40.2l75.3-85.7-42.6-24.8-51.6 46c-30 26.8-70.6-18.5-40.5-45.4l68-60.7c9.8-8.8 24.1-10.2 35.5-3.6 0 0 139.3 80.9 139.5 81.1 16.2 10.1 20.7 36 6.1 52.6L285.7 229l106.1-5.9c18.5-1.1 33.6 14.4 32.1 32.7zm-64.9-154c28.1 0 50.9-22.8 50.9-50.9C409.9 22.8 387.1 0 359 0c-28.1 0-50.9 22.8-50.9 50.9 0 28.1 22.8 50.9 50.9 50.9zM179.6 456.5c-80.6 0-127.4-90.6-82.7-156.1l-39.7-39.7C36.4 287 24 320.3 24 356.4c0 130.7 150.7 201.4 251.4 122.5l-39.7-39.7c-16 10.9-35.3 17.3-56.1 17.3z"/></symbol><symbol id="breakfast" viewBox="0 0 640 512"><path fill="currentColor" d="M512 32H112c-8.8 0-16 7.2-16 16v256c0 44.2 35.8 80 80 80h224c44.2 0 80-35.8 80-80v-16h32c70.6 0 128-57.4 128-128S582.6 32 512 32zm-80 272c0 17.6-14.4 32-32 32H176c-17.6 0-32-14.4-32-32V80h288v224zm80-64h-32V80h32c44.1 0 80 35.9 80 80s-35.9 80-80 80zm55.8 240H40.2c-37.3 0-50.2-48-32-48h591.7c18.1 0 5.2 48-32.1 48z"/></symbol><symbol id="restaurant" viewBox="0 0 480 512"><path fill="currentColor" d="M344.1 470.3l14.2-164.8c-42.1-33.1-70.4-77-70.4-129.5C288 81.7 376.1 0 440 0c22.1 0 40 17.3 40 38.5v435c0 21.2-17.9 38.5-40 38.5h-56c-22.8 0-41.8-18.7-39.9-41.7zM320 176c0 51 32.2 85.5 71.8 114.5L376 473.1c-.3 3.7 3.4 6.9 8 6.9h56c4.3 0 8-3 8-6.5v-435c0-3.5-3.7-6.5-8-6.5-44.6 0-120 65.8-120 144zM240.7 33.8C237.4 14.3 219.5 0 194.6 0c-11.9 0-24.1 3.4-33.3 11.2C152.9 4.1 141.3 0 128 0s-24.9 4.1-33.3 11.2C85.5 3.4 73.3 0 61.4 0 36.2 0 18.6 14.5 15.3 33.8 13.5 43.2 0 118.4 0 149.9c0 50.9 26.7 91.6 71 110.7L59.6 471.4C58.4 493.4 75.9 512 98 512h60c22 0 39.6-18.5 38.4-40.6L185 260.6c44.2-19.1 71-59.8 71-110.7 0-31.5-13.5-106.7-15.3-116.1zM152.3 240l12.2 233.1c.2 3.7-2.7 6.9-6.5 6.9H98c-3.7 0-6.7-3.1-6.5-6.9L103.7 240C61.3 231.2 32 197 32 149.9c0-29.7 14.8-110.6 14.8-110.6 1.6-9.9 28.3-9.7 29.5.2V162c.9 11.5 28.2 11.7 29.5.2l7.4-122.9c1.6-9.7 27.9-9.7 29.5 0l7.4 122.9c1.3 11.4 28.6 11.2 29.5-.2V39.6c1.2-9.9 27.9-10.1 29.5-.2 0 0 14.8 80.9 14.8 110.6.1 46.8-29 81.2-71.6 90z"/></symbol><symbol id="bar" viewBox="0 0 576 512"><path fill="currentColor" d="M296 464h-64V346.78l176.74-176.73c15.52-15.52 4.53-42.05-17.42-42.05H24.68c-21.95 0-32.94 26.53-17.42 42.05L184 346.78V464h-64c-22.09 0-40 17.91-40 40 0 4.42 3.58 8 8 8h240c4.42 0 8-3.58 8-8 0-22.09-17.91-40-40-40zM81.1 176h253.8L208 302.9 81.1 176zM432 0c-62.61 0-115.35 40.2-135.18 96h52.54c16.65-28.55 47.27-48 82.64-48 52.93 0 96 43.06 96 96s-43.07 96-96 96c-14.04 0-27.29-3.2-39.32-8.64l-35.26 35.26C379.23 279.92 404.59 288 432 288c79.53 0 144-64.47 144-144S511.53 0 432 0z"/></symbol><symbol id="event-virtual" viewBox="0 0 512 512"><g fill="currentColor"><path d="M487.5 329.1H451V109.8c0-26.8-21.9-48.7-48.7-48.7H109.8C83 61.1 61.1 83 61.1 109.8v219.3H24.5c-6.7 0-12.2 5.5-12.2 12.2v36.5c0 40.2 32.9 73.1 73.1 73.1h341.1c40.2 0 73.1-32.9 73.1-73.1v-36.5c.1-6.7-5.4-12.2-12.1-12.2zM97.6 109.8c0-6.6 5.6-12.2 12.2-12.2h292.4c6.6 0 12.2 5.6 12.2 12.2v219.3H97.6V109.8zm365.5 268c0 20.2-16.4 36.5-36.5 36.5H85.4c-20.2 0-36.5-16.4-36.5-36.5v-12.2h137.7c4.2 7.1 11.7 12.2 20.6 12.2h97.5c8.9 0 16.4-5 20.6-12.2H463v12.2z"/><circle cx="256" cy="183.4" r="50"/><path d="M313.3 237.7l-22.3-5.6c-23.4 16.8-51.8 13.1-70 0l-22.3 5.6C185.4 241 176 253 176 266.8v11.6c0 8.3 6.7 15 15 15h130c8.3 0 15-6.7 15-15v-11.6c0-13.8-9.4-25.8-22.7-29.1z"/></g></symbol><symbol id="event-in-person" viewBox="0 0 512 512"><g fill="currentColor"><circle cx="169.1" cy="202.3" r="89.4"/><circle cx="377.8" cy="193.6" r="67.6"/><path d="M455.3 267.1l-30.2-7.5c-31.7 22.8-70 17.7-94.6 0l-30.2 7.5c-11.1 2.8-20.2 10-25.5 19.4l7.8 2c23.9 6 40.7 27.4 40.7 52.1v1.8h142.3c11.2 0 20.3-9.1 20.3-20.3v-15.6c.1-18.7-12.6-35-30.6-39.4z"/><path d="M312.2 351.6v20.7c0 14.9-12 26.8-26.8 26.8H52.8c-14.9 0-26.8-12-26.8-26.8v-20.7c0-24.6 16.7-46.1 40.7-52.1l7.8-2 32.1-8c32.5 23.4 83.3 30.2 125.2 0l32.1 8 7.8 2c23.8 6 40.5 27.5 40.5 52.1z"/></g></symbol><symbol id="arrow-right" viewBox="0 0 31.63 19.77"><path d="M22.18 0l-2.12 2.12 5.83 5.83H0v3h25.89l-6.7 6.7 2.12 2.12L31.63 9.45 22.18 0z"/></symbol><symbol id="arrow-left" viewBox="0 0 31.63 19.77"><path d="M31.63 8.82H5.74l6.7-6.7L10.32 0 0 10.32l9.45 9.45 2.12-2.12-5.83-5.83h25.89v-3z"/></symbol><symbol id="chevron-right" viewBox="0 0 6.09 10.56"><path d="M0 10.56l6.09-5.28L0 0"/></symbol><symbol id="chevron-left" viewBox="0 0 6.09 10.56"><path d="M6.09 0v10.56L0 5.28 6.09 0z"/></symbol><symbol id="chevron-up" viewBox="0 0 10.56 6.09"><path d="M10.56 6.09L5.28 0 0 6.09"/></symbol><symbol id="chevron-down" viewBox="0 0 10.56 6.09"><path d="M0 0l5.28 6.09L10.56 0"/></symbol><symbol id="facebook" viewBox="0 0 32 32"><path d="M30.235 0H1.766C.791 0 .001.791.001 1.765v28.469c0 .976.791 1.765 1.765 1.765h15.325V19.607h-4.172v-4.828h4.172v-3.567c0-4.132 2.525-6.38 6.212-6.38 1.767 0 3.285.129 3.728.188v4.32H24.47c-2 0-2.389.961-2.389 2.361v3.081h4.779l-.62 4.84h-4.159v12.376h8.153c.977 0 1.767-.789 1.767-1.765V1.764c0-.975-.789-1.765-1.765-1.765z"/></symbol><symbol id="google-plus" viewBox="0 0 32 32"><path d="M10.18 14.545v3.492h5.78c-.231 1.5-1.747 4.393-5.775 4.393-3.472 0-6.308-2.88-6.308-6.431 0-3.549 2.829-6.429 6.304-6.429 1.98 0 3.305.844 4.06 1.571l2.764-2.659c-1.773-1.66-4.075-2.66-6.82-2.66C4.549 5.819 0 10.379 0 15.999s4.552 10.18 10.18 10.18c5.88 0 9.776-4.131 9.776-9.948 0-.668-.072-1.18-.16-1.687H10.18zm21.82 0h-2.911v-2.911h-2.911v2.911h-2.909v2.908h2.912v2.912H29.1v-2.912H32z"/></symbol><symbol id="linkedin" viewBox="0 0 32 32"><path d="M27.263 27.269h-4.739v-7.425c0-1.771-.036-4.049-2.469-4.049-2.471 0-2.848 1.927-2.848 3.919v7.556h-4.739V12.001h4.552v2.081h.061c.636-1.2 2.183-2.467 4.493-2.467 4.801 0 5.689 3.16 5.689 7.273v8.381zM7.116 9.911a2.75 2.75 0 01-2.751-2.753 2.752 2.752 0 112.751 2.753zm2.376 17.358H4.74V12h4.752v15.269zM29.633 0H2.361C1.056 0 0 1.032 0 2.305v27.389c0 1.275 1.056 2.305 2.361 2.305h27.268c1.304 0 2.371-1.031 2.371-2.305V2.305C32 1.032 30.933 0 29.629 0h.004z"/></symbol><symbol id="twitter" viewBox="0 0 32 32"><path d="M31.939 6.092a13.31 13.31 0 01-3.767 1.033 6.613 6.613 0 002.884-3.631 13.55 13.55 0 01-4.169 1.579A6.56 6.56 0 0015.539 9.55c0 .52.06 1.02.169 1.499-5.453-.257-10.287-2.876-13.521-6.835a6.432 6.432 0 00-.888 3.3 6.56 6.56 0 002.917 5.461 6.554 6.554 0 01-2.971-.821v.081a6.564 6.564 0 005.261 6.436 6.663 6.663 0 01-2.949.113 6.582 6.582 0 006.139 4.556 13.156 13.156 0 01-8.136 2.807c-.52 0-1.039-.031-1.56-.089a18.657 18.657 0 0010.076 2.945c12.072 0 18.665-9.995 18.665-18.648 0-.279 0-.56-.02-.84 1.281-.919 2.4-2.08 3.28-3.397l-.063-.027z"/></symbol><symbol id="youtube" viewBox="0 0 32 32"><path d="M31.327 8.273a4.026 4.026 0 00-2.756-2.777l-.028-.007c-2.493-.668-12.528-.668-12.528-.668s-10.009-.013-12.528.668A4.026 4.026 0 00.71 8.245l-.007.028C.26 10.554.007 13.176.007 15.858v.163-.008.126c0 2.682.253 5.304.737 7.845l-.041-.26a4.026 4.026 0 002.756 2.777l.028.007c2.491.669 12.528.669 12.528.669s10.008 0 12.528-.669a4.026 4.026 0 002.777-2.756l.007-.028c.425-2.233.668-4.803.668-7.429l-.001-.297v.015l.001-.31c0-2.626-.243-5.196-.708-7.687l.04.258zM12.812 20.801V11.21l8.352 4.803z"/></symbol><symbol id="instagram" viewBox="0 0 32 32"><path d="M16 0c-4.347 0-4.889.02-6.596.096C7.7.176 6.54.444 5.52.84c-1.052.408-1.945.956-2.835 1.845S1.246 4.466.84 5.52C.444 6.54.175 7.7.096 9.404.016 11.111 0 11.653 0 16s.02 4.889.096 6.596c.08 1.703.348 2.864.744 3.884a7.854 7.854 0 001.845 2.835A7.807 7.807 0 005.52 31.16c1.021.395 2.181.665 3.884.744 1.707.08 2.249.096 6.596.096s4.889-.02 6.596-.096c1.703-.08 2.864-.349 3.884-.744a7.867 7.867 0 002.835-1.845 7.799 7.799 0 001.845-2.835c.395-1.02.665-2.181.744-3.884.08-1.707.096-2.249.096-6.596s-.02-4.889-.096-6.596c-.08-1.703-.349-2.865-.744-3.884a7.859 7.859 0 00-1.845-2.835A7.786 7.786 0 0026.48.84C25.46.444 24.299.175 22.596.096 20.889.016 20.347 0 16 0zm0 2.88c4.271 0 4.78.021 6.467.095 1.56.073 2.407.332 2.969.553.749.289 1.28.636 1.843 1.195a4.95 4.95 0 011.195 1.841c.219.563.48 1.409.551 2.969.076 1.688.093 2.195.093 6.467s-.02 4.78-.099 6.467c-.081 1.56-.341 2.407-.561 2.969-.299.749-.639 1.28-1.199 1.843a5.002 5.002 0 01-1.84 1.195c-.56.219-1.42.48-2.98.551-1.699.076-2.199.093-6.479.093-4.281 0-4.781-.02-6.479-.099-1.561-.081-2.421-.341-2.981-.561-.759-.299-1.28-.639-1.839-1.199a4.867 4.867 0 01-1.2-1.84c-.22-.56-.479-1.42-.56-2.98-.06-1.68-.081-2.199-.081-6.459 0-4.261.021-4.781.081-6.481.081-1.56.34-2.419.56-2.979.28-.76.639-1.28 1.2-1.841.559-.559 1.08-.919 1.839-1.197.56-.221 1.401-.481 2.961-.561 1.7-.06 2.2-.08 6.479-.08l.06.04zm0 4.904A8.215 8.215 0 007.784 16c0 4.54 3.68 8.216 8.216 8.216 4.54 0 8.216-3.68 8.216-8.216 0-4.54-3.68-8.216-8.216-8.216zm0 13.549c-2.947 0-5.333-2.387-5.333-5.333s2.387-5.333 5.333-5.333 5.333 2.387 5.333 5.333-2.387 5.333-5.333 5.333zM26.461 7.46a1.921 1.921 0 01-3.84 0 1.92 1.92 0 013.84 0z"/></symbol><symbol id="404" viewBox="0 0 450 450"><style>.st0,.st1{fill:#3267b0}.st1,.st2{fill-rule:evenodd;clip-rule:evenodd}.st2{fill:#fff}.st3{fill:#3267b0;stroke:#fff;stroke-width:2.8346;stroke-miterlimit:10}.st4{fill:#fff}.st5{font-family:&apos;Univers-Bold&apos;}.st6{font-size:28.9296px}</style><circle class="st0" cx="345.8" cy="259.7" r="6.5"/><path class="st1" d="M317.2 146.3c25 2.3 44.9 36.9 44.9 79.2 0 42.3-19.9 76.9-44.9 79.2 8.3-4 15.6-11.4 21.5-21.2 8.9-14.9 14.5-35.4 14.5-58s-5.5-43.2-14.5-58c-5.9-9.9-13.3-17.2-21.5-21.2zm-12.7 158.5c12.2-.7 23.3-9.3 31.5-22.9 8.6-14.4 14-34.4 14-56.4s-5.4-42-14-56.4c-8.2-13.6-19.3-22.3-31.5-22.9h-31.9c8.4 4 15.8 11.4 21.8 21.3 8.9 14.9 14.5 35.4 14.5 58s-5.5 43.2-14.5 58c-5.9 9.9-13.4 17.3-21.8 21.3h31.9zm-44.3 0h-9.5c-19.9 0-37-20.4-44.1-49.3h17.7c5 14.9 13.6 24.7 23.4 24.7 15.4 0 28-24.5 28-54.7 0-30.2-12.5-54.7-28-54.7-11.7 0-21.7 14.1-25.9 34.1l-17.2.9c5.3-34.3 23.9-59.6 46.1-59.6h9.5c12.2.7 23.3 9.3 31.5 22.9 8.6 14.4 14 34.4 14 56.4s-5.4 42-14 56.4c-8.2 13.7-19.3 22.3-31.5 22.9z"/><path class="st1" d="M102.2 234h188.1v14.7H95.5c-4.7 0-6.6-4.1-6.6-7.4v-17.2h4.9c2.3 0 5-.5 6.7 4.6.6 1.7 1.1 3.5 1.7 5.3zm152.3-26.6c6.5 0 11.8 5.3 11.8 11.8 0 6.5-5.3 11.8-11.8 11.8-6.5 0-11.8-5.3-11.8-11.8.1-6.5 5.4-11.8 11.8-11.8z"/><path class="st1" d="M118.4 230.6c-5.1 0-6.9-9.9-8.2-14.8-1.6-5.9 3-2 4.8.1 2.9 3.5 3.5 7 9.7 6.7l46.9-2c11.1-.7 17.8-6.5 28.8-7.2l23.9-1.6c15.7-1 17.9 10.2 29.8 9.2 5.2-.4 5.7 9.8.5 9.8-23.5 0-47 0-70.5-.1-1.1-.3-1.8-.9-2.1-1.6-.2-.4-.3-.8-.2-1.3 0-.4.2-.9.4-1.3.6-1 1.9-1.6 3.6-1.4 1.4.2 2.6.5 3.7.7 2.3.6 4.5 1.1 7.2.6 1.2-.2 2.9-.5 4.9-.9 10.7-2.1 31.8-6.4 36.2-1.9-1.2-3-6-3.4-7.7-3.5-8.8-.2-21.3 2.3-28.8 3.8-2.1.4-3.8.8-4.8.9-2.4.4-4.4-.1-6.6-.6-1.2-.3-2.5-.6-3.9-.8-2.4-.3-4.2.7-5.1 2.1-.4.6-.6 1.3-.7 2-.1.7.1 1.4.4 2.1.1.3.3.6.6.9-21.1.3-41.9.2-62.8.1z"/><path class="st2" d="M409.2 374.7c5.3.5 9.6 7.8 9.6 16.8s-4.2 16.4-9.6 16.9c1.8-.8 3.3-2.4 4.6-4.5 1.9-3.2 3.1-7.5 3.1-12.3 0-4.8-1.2-9.2-3.1-12.3-1.3-2.2-2.9-3.8-4.6-4.6zm-2.7 33.7c2.6-.1 5-2 6.7-4.9 1.8-3.1 3-7.3 3-12s-1.1-8.9-3-12c-1.7-2.9-4.1-4.7-6.7-4.9h-6.8c1.8.8 3.4 2.4 4.6 4.5 1.9 3.2 3.1 7.5 3.1 12.3 0 4.8-1.2 9.2-3.1 12.3-1.3 2.1-2.9 3.7-4.6 4.5h6.8v.2zm-9.5 0h-2c-4.2 0-7.9-4.3-9.4-10.5h3.8c1.1 3.2 2.9 5.2 5 5.2 3.3 0 5.9-5.2 5.9-11.6 0-6.4-2.7-11.6-5.9-11.6-2.5 0-4.6 3-5.5 7.3l-3.7.2c1.1-7.3 5.1-12.7 9.8-12.7h2c2.6.1 5 2 6.7 4.9 1.8 3.1 3 7.3 3 12s-1.1 8.9-3 12c-1.7 2.8-4.1 4.7-6.7 4.8z"/><path class="st2" d="M363.4 393.3h40v3.1H362c-1 0-1.4-.9-1.4-1.6v-3.7h1c.5 0 1.1-.1 1.4 1 .2.5.3.9.4 1.2zm32.4-5.6c1.4 0 2.5 1.1 2.5 2.5s-1.1 2.5-2.5 2.5-2.5-1.1-2.5-2.5 1.2-2.5 2.5-2.5z"/><path class="st2" d="M366.9 392.6c-1.1 0-1.5-2.1-1.7-3.1-.3-1.2.6-.4 1 0 .6.7.7 1.5 2.1 1.4l10-.4c2.4-.1 3.8-1.4 6.1-1.5l5.1-.3c3.3-.2 3.8 2.2 6.3 2 1.1-.1 1.2 2.1.1 2.1h-15c-.2-.1-.4-.2-.5-.3 0-.1-.1-.2 0-.3 0-.1 0-.2.1-.3.1-.2.4-.3.8-.3.3 0 .5.1.8.2.5.1.9.2 1.5.1.3 0 .6-.1 1-.2 2.3-.5 6.8-1.4 7.7-.4-.2-.6-1.3-.7-1.6-.7-1.9 0-4.5.5-6.1.8-.4.1-.8.2-1 .2-.5.1-.9 0-1.4-.1-.3-.1-.5-.1-.8-.2-.5-.1-.9.1-1.1.4-.1.1-.1.3-.1.4 0 .2 0 .3.1.4 0 .1.1.1.1.2-4.6 0-9.1-.1-13.5-.1z"/><path class="st3" d="M315.5 305.8c0 6 5.5 10.9 12.2 10.9h67.7c6.8 0 12.2-4.9 12.2-10.9V272h-92.2v33.8z"/><path class="st3" d="M395.4 252.4h-67.7c-6.8 0-12.2 4.9-12.2 10.9v9.4h92.2v-9.4c0-6-5.5-10.9-12.3-10.9zM333 265.7c-1.9 0-3.5-1.6-3.5-3.5s1.6-3.5 3.5-3.5 3.5 1.6 3.5 3.5-1.6 3.5-3.5 3.5zm16.6 0c-1.9 0-3.5-1.6-3.5-3.5s1.6-3.5 3.5-3.5 3.5 1.6 3.5 3.5-1.5 3.5-3.5 3.5zm-21.4-13.8l66.9.1c1.4 0 2.5-1 2.5-2.3l.1-45.1c0-1.3-1.1-2.3-2.5-2.3l-66.9-.1c-1.4 0-2.5 1-2.5 2.3l-.1 45.1c0 1.3 1.1 2.3 2.5 2.3zm64.9-5.3c0 .5-.5.9-1 .9-.6 0-1-.4-1-.9s.5-.9 1-.9 1 .4 1 .9zm-56-36.1l48.2.1v30.2l-48.2-.1v-30.2z"/><path class="st4" d="M334.8 208.3H389v35.1h-54.2z"/><text transform="translate(337.713 235.733)" class="st0 st5 st6">404</text></symbol><symbol id="500" viewBox="0 0 800 800"><style>.st0{fill:none}.st1{fill:#3267b0}.st2{fill:#9d9d9c}</style><path class="st0" d="M394 407.9l8.2 4.8v-17.1zm-87.4-5.5l5.7 2.1 28.9-32.8 14.9-22.4 9.2-25.1-.5-3.1c-2.4-.6-4.7-1.3-7.1-2l-7.5 11.7c-6.9 10.7-19.5 14.9-28.1 9.4l-10.5-6.7c-.9-.6-1.7-1.3-2.5-2l-3.7 10.2 1.2 60.7zm162.3-153.8L454.1 236l3.8 25.2zm-125.7 1.3c.1-.5.2-.9.3-1.4l7.2-21.2-1-6.8-16.4 44.8 9.9-15.4zm122.9 73.2l.1 58.8 14 20.4 6-1.4 8.4-60.3-8.5-36.1-12.4 14.2c-2.2 2.3-4.8 3.8-7.6 4.4z"/><path class="st1" d="M529.7 235.6l-18.5-16.2c-.7-.6-1.5-1.1-2.2-1.5-.4-.5-.9-1-1.4-1.5l-24.5-21 .1.2c.6 2.4-.9 4.8-3.3 5.4l-6.6 1.6 21.7 91.8 35.2-40.2c4.9-5.8 4.7-14.1-.5-18.6z"/><path class="st2" d="M473.2 202.5l6.6-1.6c2.4-.6 3.9-3 3.3-5.4l-.1-.2-1.3-5.7c-.8-3.2-1.5-6.5-2.3-9.7-.4-1.5-.7-3-1.1-4.5-.7-2.8-3.3-4.1-6-2.9-3.6 1.5-7.3 3-10.9 4.3-5.1 1.9-10.2 3.6-15.4 5.1l3.9 26 12.6-3 19.3 81.6c-6.6.9-13.1 2.1-19.6 3.5l2.7 17.7c6.9-1.7 13.8-3.7 20.5-6l.6 2.6 8.5 36.1-8.4 60.3-6 1.4-14-20.4v19.4l17.5 25.4L510 538c-1.3 1-1.9 2.8-1.5 4.5l3.7 15.8c.6 2.4 3 3.9 5.4 3.3l6.6-1.6c2.4-.6 3.9-3 3.3-5.4l-3.7-15.8c-.4-1.6-1.6-2.8-3-3.2l-26.6-112.5 11.6-83h.1l-10.9-46-21.8-91.6z"/><path class="st1" d="M366.4 321.5c-.5-.1-1-.3-1.5-.4l.5 3.1 1-2.7zm43.9-180.3c22.9-14.7 29.4-45.2 14.7-68.1-14.7-22.9-45.2-29.4-68.1-14.7-22.9 14.7-29.4 45.2-14.7 68.1 14.8 22.8 45.3 29.4 68.1 14.7z"/><path class="st1" d="M466.1 323.1c2.8-.6 5.4-2.2 7.5-4.5l12.4-14.2-.6-2.6c-6.8 2.3-13.6 4.3-20.5 6l-2.7-17.7c6.5-1.4 13-2.6 19.6-3.5L462.5 205l-12.6 3-3.9-26c5.2-1.5 10.3-3.3 15.4-5.1L435.9 155c-.9-.8-1.9-1.3-3-1.7-4.6-2.7-10.3-3.9-16.1-3l-52.2 7.9c-10.3 1.6-18.2 9.2-20.1 18.5.9-.1 1.9.1 2.8.6 5.7 3.2 11.4 6.2 17.3 9l-8.6 25.4-2.7-1-3.6 9.7 1 6.8-7.2 21.2c-.2.5-.3.9-.3 1.4l-9.9 15.4-24.8 38.6c-6.2 9.6-5.7 21.1.6 27.4.8.8 1.6 1.5 2.5 2l10.5 6.7c8.6 5.6 21.2 1.4 28.1-9.4l7.5-11.7 9.3-14.4c1.6.7 3.1 1.4 4.7 2.2l8-21.9 7.2-11.1c2.1-3.3 3.5-6.9 4.1-10.4l20.5-60.3c5 1.3 10.1 2.4 15.3 3.3 2.8.5 4.3 3.1 3.4 5.8-.5 1.4-1.1 2.9-1.6 4.3-1.1 3.1-2.3 6.3-3.4 9.4l-2.1 5.7c-.8 2.3-3.4 3.5-5.7 2.6l-6.3-2.3-48.7 132.9h-.1l-46 52.1c0 4.3 1.1 8.5 3.2 12.3 1.4 6.4 5.4 12.1 11.4 15.7l71.6 42.2.1 66.1c0 13.5 11 24.5 24.5 24.5h15c13.5 0 24.5-11 24.5-24.5v-40.5c4.5-2 8.4-5.3 11.1-9.9l7.6-12.9c6.9-11.6 3-26.7-8.6-33.5l-10.2-6-.1-49.1v-19.4l-.3-58.6zm2.8-74.5l-11 12.6-3.8-25.2 14.8 12.6zM394 407.9l8.2-12.3v17.1l-8.2-4.8z"/><path class="st1" d="M352.7 358.8l3.5-9.5-14.9 22.4z"/><path class="st2" d="M362.2 364.7L411 231.8l6.3 2.3c2.3.8 4.9-.3 5.7-2.6l2.1-5.7c1.1-3.1 2.3-6.3 3.4-9.4.5-1.4 1.1-2.9 1.6-4.3 1-2.7-.5-5.2-3.4-5.8-5.1-.9-10.2-2.1-15.3-3.3L391 263.3c-.6 3.5-1.9 7.1-4.1 10.4l-7.2 11.1-8 21.9c-1.5-.7-3.1-1.4-4.7-2.2l-9.3 14.4c2.4.7 4.7 1.4 7.1 2 .5.1 1 .3 1.5.4l-1 2.7-9.2 25.1-3.5 9.5-11.4 12.9-28.9 32.8-5.7-2.1-1.2-60.9 3.7-10.2c-6.3-6.3-6.8-17.8-.6-27.4l24.8-38.6 16.4-44.8 3.6-9.7 2.7 1 8.6-25.4c-5.9-2.8-11.7-5.8-17.3-9-.9-.5-1.9-.7-2.8-.6-1.5.2-2.9 1.2-3.5 2.8-.5 1.4-1.1 2.9-1.6 4.3-1.1 3.1-2.3 6.3-3.4 9.4l-2.1 5.7c-.8 2.3.3 4.9 2.6 5.7l6.3 2.3-48.7 132.9h.1l1.7 84.8-39.3 107.4c-1.6.2-3.1 1.2-3.7 2.9l-5.6 15.3c-.8 2.3.3 4.9 2.6 5.7l6.4 2.3c2.3.8 4.9-.3 5.7-2.6l5.6-15.3c.6-1.5.2-3.2-.7-4.3l39.8-108.6 9.4-10.7 46.1-51.9zM524 202.2l.9.6c.5.4 1.4 1 2.3 1.9.5.4 1 .9 1.6 1.4.5.6 1.1 1.2 1.7 1.8 1.2 1.3 2.5 2.9 3.7 4.8.6.9 1.2 1.9 1.8 2.9.3.5.6 1.1.8 1.6.3.6.6 1.1.8 1.7 1 2.3 1.7 4.9 2.4 7.6.5 2.7 1.1 5.5 1.5 8.3.4 2.8.8 5.7 1.1 8.7.2 2.9.2 5.9-.1 8.8-.4 2.9-.9 5.7-1.7 8.4-.4 1.3-.8 2.6-1.3 3.9-.2.6-.5 1.3-.7 1.9-.3.6-.6 1.2-.8 1.8-.5 1.2-1.2 2.2-1.8 3.3-.7 1-1.3 2-1.9 2.9-1.3 1.8-2.6 3.4-3.8 4.7-.6.7-1.2 1.3-1.7 1.8-.6.5-1.1 1-1.6 1.4-.9.9-1.8 1.4-2.3 1.9-.5.4-.8.6-.8.6l-.2-.2s.2-.3.6-.8c.4-.5 1.1-1.3 1.8-2.3.4-.5.8-1.1 1.2-1.7.4-.6.9-1.3 1.4-2 1-1.4 2-3.1 3-4.9.5-.9 1-1.9 1.6-2.9.5-1 1-2.1 1.5-3.2 1-2.2 1.9-4.6 2.7-7.1.8-2.5 1.5-5.1 2.1-7.9.5-2.7.9-5.5 1.2-8.4.2-2.8.1-5.7-.3-8.5s-1.2-5.5-2.2-8c-1.1-2.5-2.2-4.8-3.3-6.9-.5-1.1-1.1-2.1-1.6-3.1-.6-1-1.1-2-1.6-2.9-1.1-1.8-2.1-3.5-3.1-4.9-.5-.7-1-1.4-1.4-2-.4-.6-.9-1.1-1.2-1.7-.7-1-1.4-1.8-1.8-2.3-.4-.6-.6-.8-.6-.8l.1-.2z"/><path class="st2" d="M534 202.4s.3.2.8.7c.5.5 1.3 1.1 2.2 2 .4.5.9 1 1.5 1.5.5.6 1.1 1.2 1.6 1.9 1.2 1.3 2.4 2.9 3.6 4.7.6.9 1.2 1.9 1.8 2.9.6 1 1.2 2.1 1.7 3.2 1.1 2.2 2.1 4.7 3 7.3.8 2.6 1.5 5.4 2 8.3.4 2.9.7 5.8.7 8.7 0 2.9-.3 5.9-.7 8.7-.4 2.9-1.2 5.6-2 8.3-.9 2.6-1.9 5.1-3 7.3-.5 1.1-1.2 2.2-1.7 3.2-.6 1-1.2 2-1.8 2.9-1.2 1.8-2.5 3.4-3.6 4.7-.6.7-1.1 1.3-1.6 1.9l-1.5 1.5c-.9.9-1.7 1.5-2.2 2-.5.4-.8.7-.8.7s.2-.3.7-.8c.4-.5 1.1-1.2 1.9-2.2.4-.5.8-1 1.3-1.6.5-.6.9-1.3 1.5-2 1-1.4 2.1-3.1 3.2-4.9.6-.9 1.1-1.9 1.6-2.9s1.1-2.1 1.5-3.2c1-2.2 1.8-4.7 2.6-7.2.7-2.6 1.3-5.3 1.7-8 .4-2.8.6-5.6.6-8.4 0-2.8-.2-5.7-.6-8.4-.4-2.8-1-5.4-1.7-8-.8-2.5-1.6-5-2.6-7.2-.5-1.1-1-2.2-1.5-3.2-.6-1-1.1-2-1.6-2.9-1.1-1.8-2.2-3.5-3.2-4.9-.5-.7-1-1.4-1.5-2-.5-.6-.9-1.1-1.3-1.6-.8-1-1.5-1.7-1.9-2.2-.5-.6-.7-.8-.7-.8zM500.8 433l.9.6c.5.4 1.4 1 2.3 1.8.5.4 1 .9 1.6 1.4.6.6 1.1 1.2 1.8 1.8 1.2 1.3 2.5 2.9 3.8 4.8.6.9 1.2 1.9 1.9 3 .3.5.6 1.1.9 1.6.3.6.6 1.1.8 1.7 1.1 2.3 1.8 5 2.4 7.7.6 2.7 1.1 5.5 1.6 8.4.4 2.9.8 5.8 1.1 8.7.2 3 .3 5.9-.1 8.9-.3 2.9-.9 5.8-1.6 8.5-.4 1.3-.8 2.7-1.3 3.9-.2.6-.5 1.3-.7 1.9-.3.6-.6 1.2-.8 1.8-.6 1.2-1.2 2.3-1.8 3.3-.7 1-1.2 2-1.9 2.9-1.3 1.8-2.6 3.4-3.8 4.8-.6.7-1.2 1.3-1.7 1.8-.6.5-1.1 1-1.6 1.5-.9.9-1.8 1.5-2.3 1.9-.5.4-.8.6-.8.6l-.2-.2s.2-.3.6-.8c.4-.6 1.1-1.3 1.8-2.3.4-.5.8-1.1 1.2-1.7.4-.6.9-1.3 1.4-2 .9-1.5 2-3.1 3-5 .5-.9 1-1.9 1.5-2.9s1-2.1 1.5-3.2c1-2.2 1.9-4.6 2.7-7.1.8-2.5 1.5-5.2 2-7.9.5-2.8.9-5.6 1.1-8.4.2-2.9.1-5.8-.3-8.6-.5-2.8-1.2-5.5-2.3-8-1.1-2.5-2.2-4.8-3.4-7-1.1-2.2-2.2-4.2-3.3-6-1.1-1.8-2.2-3.5-3.2-4.9-.5-.7-1-1.4-1.4-2-.5-.6-.9-1.2-1.3-1.7-.7-1-1.4-1.8-1.8-2.3-.4-.6-.6-.8-.6-.8l.3-.5z"/><path class="st2" d="M510.7 433s.3.2.8.7c.5.5 1.3 1.1 2.2 2l1.5 1.5c.5.6 1.1 1.2 1.7 1.9 1.2 1.4 2.4 2.9 3.7 4.8.6.9 1.2 1.9 1.9 2.9.6 1 1.2 2.1 1.8 3.2 1.2 2.3 2.2 4.7 3.1 7.4.8 2.6 1.6 5.4 2.1 8.3.4 2.9.7 5.8.8 8.8 0 3-.2 5.9-.7 8.8-.4 2.9-1.1 5.7-1.9 8.3-.9 2.6-1.8 5.1-3 7.4-.5 1.1-1.2 2.2-1.7 3.3-.6 1-1.2 2-1.8 2.9-1.2 1.8-2.5 3.4-3.6 4.8-.6.7-1.1 1.3-1.6 1.9-.5.6-1 1.1-1.5 1.5-.9.9-1.7 1.6-2.2 2-.5.5-.8.7-.8.7s.2-.3.7-.8c.4-.5 1.1-1.2 1.9-2.2.4-.5.8-1 1.3-1.6.5-.6.9-1.3 1.5-2 1-1.4 2.1-3.1 3.2-5 .6-.9 1-1.9 1.6-3 .5-1.1 1-2.1 1.5-3.3 1-2.3 1.8-4.7 2.6-7.3.7-2.6 1.3-5.3 1.7-8.1.4-2.8.6-5.6.6-8.5 0-2.9-.2-5.7-.7-8.5-.5-2.8-1-5.5-1.8-8.1-.8-2.6-1.7-5-2.7-7.3-.5-1.1-1.1-2.2-1.6-3.2-.6-1-1.1-2-1.6-2.9-1.1-1.8-2.2-3.5-3.3-4.9-.5-.7-1-1.4-1.5-2-.5-.6-.9-1.1-1.4-1.6-.8-1-1.5-1.7-2-2.2-.6-.3-.8-.6-.8-.6z"/></symbol></svg>