<?xml version="1.0" encoding="UTF-8" standalone="no"?>
<svg
   xmlns:dc="http://purl.org/dc/elements/1.1/"
   xmlns:cc="http://creativecommons.org/ns#"
   xmlns:rdf="http://www.w3.org/1999/02/22-rdf-syntax-ns#"
   xmlns:svg="http://www.w3.org/2000/svg"
   xmlns="http://www.w3.org/2000/svg"
   xmlns:sodipodi="http://sodipodi.sourceforge.net/DTD/sodipodi-0.dtd"
   xmlns:inkscape="http://www.inkscape.org/namespaces/inkscape"
   sodipodi:docname="Medical Research Council logo.svg"
   inkscape:version="1.0 (4035a4fb49, 2020-05-01)"
   id="svg4216"
   version="1.1"
   viewBox="0 0 132.82083 44.626392"
   height="168.66667"
   width="502">
  <defs
     id="defs4210">
    <clipPath
       id="clip8">
      <path
         d="m 121,41 h 4.62109 v 7 H 121 Z m 0,0"
         id="path648" />
    </clipPath>
    <clipPath
       id="clip9">
      <path
         d="M 15.402344,28 H 49 V 60.855469 H 15.402344 Z m 0,0"
         id="path651" />
    </clipPath>
    <clipPath
       id="clip10">
      <path
         d="M 48,24.117188 H 71 V 60.855469 H 48 Z m 0,0"
         id="path654" />
    </clipPath>
    <clipPath
       id="clip11">
      <path
         d="M 54,28 H 81 V 60.855469 H 54 Z m 0,0"
         id="path657" />
    </clipPath>
  </defs>
  <sodipodi:namedview
     inkscape:window-maximized="1"
     inkscape:window-y="-9"
     inkscape:window-x="-9"
     inkscape:window-height="1001"
     inkscape:window-width="1920"
     fit-margin-bottom="1"
     fit-margin-right="1"
     fit-margin-left="1"
     fit-margin-top="1"
     units="px"
     showgrid="false"
     inkscape:document-rotation="0"
     inkscape:current-layer="layer1"
     inkscape:document-units="mm"
     inkscape:cy="220.63069"
     inkscape:cx="-93.311302"
     inkscape:zoom="0.70710678"
     inkscape:pageshadow="2"
     inkscape:pageopacity="0.0"
     borderopacity="1.0"
     bordercolor="#666666"
     pagecolor="#ffffff"
     id="base" />
  <metadata
     id="metadata4213">
    <rdf:RDF>
      <cc:Work
         rdf:about="">
        <dc:format>image/svg+xml</dc:format>
        <dc:type
           rdf:resource="http://purl.org/dc/dcmitype/StillImage" />
        <dc:title></dc:title>
      </cc:Work>
    </rdf:RDF>
  </metadata>
  <g
     transform="translate(-46.818551,-85.481382)"
     id="layer1"
     inkscape:groupmode="layer"
     inkscape:label="Layer 1">
    <g
       id="g4161"
       transform="matrix(1.2003072,0,0,1.2003072,28.590902,56.797931)">
      <path
         style="fill:#171c61;fill-opacity:1;fill-rule:nonzero;stroke:none"
         d="m 94.378906,38.285156 h -1.214843 v -3.953125 h -0.07422 l -1.210938,3.488282 h -1.492187 l -1.203125,-3.488282 h -0.07422 v 3.953125 h -1.214844 v -6.484375 h 1.585938 l 1.582031,4.59375 h 0.148438 l 1.582031,-4.59375 h 1.585937 z m 0,0"
         id="path2886" />
      <path
         style="fill:#171c61;fill-opacity:1;fill-rule:nonzero;stroke:none"
         d="m 96.445313,35.386719 h 2.082031 c -0.136719,-0.546875 -0.519531,-0.769531 -0.980469,-0.769531 -0.507812,0 -0.917969,0.289062 -1.101562,0.769531 M 99.75,36.320313 h -3.378906 c 0.136719,0.703125 0.710937,0.964843 1.210937,0.964843 0.632813,0 0.898438,-0.390625 0.898438,-0.390625 h 1.167969 c -0.351563,0.925782 -1.195313,1.4375 -2.101563,1.4375 -1.25,0 -2.34375,-0.957031 -2.34375,-2.398437 0,-1.4375 1.082031,-2.324219 2.304688,-2.324219 1.1875,0 2.390625,0.824219 2.242187,2.710938"
         id="path2888" />
      <path
         style="fill:#171c61;fill-opacity:1;fill-rule:nonzero;stroke:none"
         d="m 103.75391,35.96875 c 0,-0.769531 -0.41797,-1.222656 -1.01953,-1.222656 -0.56641,0 -1.13282,0.40625 -1.13282,1.222656 0,0.816406 0.56641,1.222656 1.13282,1.222656 0.60156,0 1.01953,-0.453125 1.01953,-1.222656 m 1.15625,-4.257812 v 6.574218 h -0.90625 l -0.13282,-0.445312 h -0.13671 c -0.28907,0.316406 -0.67579,0.492187 -1.17579,0.492187 -1.17578,0 -2.16015,-0.964843 -2.16015,-2.363281 0,-1.398437 0.98437,-2.363281 2.16015,-2.363281 0.48047,0 0.89844,0.167969 1.19532,0.5 v -2.394531 z m 0,0"
         id="path2890" />
      <path
         style="fill:#171c61;fill-opacity:1;fill-rule:nonzero;stroke:none"
         d="m 107.1875,38.285156 h -1.18359 v -4.632812 h 1.18359 z m -1.38672,-5.929687 c 0,-0.441406 0.35938,-0.785156 0.79688,-0.785156 0.42578,0 0.77734,0.34375 0.77734,0.785156 0,0.417969 -0.35156,0.78125 -0.77734,0.78125 -0.4375,0 -0.79688,-0.363281 -0.79688,-0.78125"
         id="path2892" />
      <path
         style="fill:#171c61;fill-opacity:1;fill-rule:nonzero;stroke:none"
         d="m 110.39453,38.332031 c -1.28906,0 -2.34375,-0.992187 -2.34375,-2.351562 0,-1.382813 1.09375,-2.371094 2.38672,-2.371094 1.05859,0 1.95703,0.65625 2.21484,1.738281 h -1.25781 c -0.19531,-0.378906 -0.53906,-0.621093 -0.98437,-0.621093 -0.64844,0 -1.16407,0.519531 -1.16407,1.242187 0,0.722656 0.51563,1.242188 1.16407,1.242188 0.41797,0 0.74218,-0.214844 0.94531,-0.554688 h 1.26953 c -0.29687,1.101563 -1.25,1.675781 -2.23047,1.675781"
         id="path2894" />
      <path
         style="fill:#171c61;fill-opacity:1;fill-rule:nonzero;stroke:none"
         d="m 116.14453,36.339844 v -0.09375 c -0.84375,0.09375 -1.67578,0.195312 -1.67578,0.675781 0,0.703125 1.60156,0.648438 1.67578,-0.582031 m 1.6875,1.054687 v 0.890625 h -0.27734 c -0.53906,0 -0.91797,-0.195312 -1.07422,-0.59375 -0.27734,0.378907 -0.74219,0.640625 -1.46484,0.640625 -1.04688,0 -1.71485,-0.539062 -1.71485,-1.371093 0,-1.445313 1.97656,-1.574219 2.86328,-1.621094 -0.0195,-0.539063 -0.3164,-0.730469 -0.78906,-0.730469 -0.65625,0 -0.70312,0.394531 -0.70312,0.394531 h -1.15625 c 0.082,-0.820312 0.75781,-1.394531 1.89062,-1.394531 1.10156,0 1.87891,0.542969 1.87891,1.886719 v 1.234375 c 0,0.535156 0.19531,0.664062 0.54687,0.664062"
         id="path2896" />
      <path
         style="fill:#171c61;fill-opacity:1;fill-rule:nonzero;stroke:none"
         d="m 119.63672,38.285156 h -1.20313 v -6.574218 h 1.20313 z m 0,0"
         id="path2898" />
      <path
         style="fill:#171c61;fill-opacity:1;fill-rule:nonzero;stroke:none"
         d="m 89.070313,44.246094 h 1.019531 c 0.527344,0 0.878906,-0.410156 0.878906,-0.945313 0,-0.539062 -0.359375,-0.851562 -0.878906,-0.851562 h -1.019531 z m 2.148437,3.527344 -1.378906,-2.382813 h -0.769531 v 2.382813 h -1.175782 v -6.484375 h 2.289063 c 1.0625,0 2.007812,0.714843 2.007812,1.992187 0,0.890625 -0.5,1.566406 -1.164062,1.890625 l 1.5625,2.601563 z m 0,0"
         id="path2900" />
      <path
         style="fill:#171c61;fill-opacity:1;fill-rule:nonzero;stroke:none"
         d="m 94.019531,44.875 h 2.082032 c -0.140625,-0.546875 -0.519532,-0.769531 -0.980469,-0.769531 -0.511719,0 -0.917969,0.289062 -1.101563,0.769531 m 3.304688,0.933594 h -3.378906 c 0.136718,0.703125 0.710937,0.964844 1.210937,0.964844 0.628906,0 0.898438,-0.390625 0.898438,-0.390625 h 1.167968 c -0.351562,0.925781 -1.195312,1.4375 -2.101562,1.4375 -1.25,0 -2.34375,-0.957032 -2.34375,-2.398438 0,-1.4375 1.082031,-2.324219 2.304687,-2.324219 1.1875,0 2.390625,0.824219 2.242188,2.710938"
         id="path2902" />
      <path
         style="fill:#171c61;fill-opacity:1;fill-rule:nonzero;stroke:none"
         d="m 99.851563,44.078125 c -0.386719,0 -0.554688,0.195313 -0.554688,0.386719 0,0.316406 0.417969,0.410156 0.695313,0.464844 0.824222,0.175781 1.656252,0.425781 1.656252,1.40625 0,0.957031 -0.78516,1.484375 -1.738284,1.484375 -1.066406,0 -1.890625,-0.648438 -1.945312,-1.628907 h 1.136719 c 0.02734,0.277344 0.214843,0.636719 0.777343,0.636719 0.472654,0 0.585934,-0.25 0.585934,-0.445312 0,-0.34375 -0.32421,-0.441407 -0.640621,-0.519532 -0.546875,-0.117187 -1.722656,-0.339843 -1.722656,-1.398437 0,-0.90625 0.871093,-1.371094 1.769531,-1.371094 1.039066,0 1.722656,0.632813 1.777346,1.410156 h -1.13672 c -0.0391,-0.15625 -0.1875,-0.425781 -0.660157,-0.425781"
         id="path2904" />
      <path
         style="fill:#171c61;fill-opacity:1;fill-rule:nonzero;stroke:none"
         d="m 103.46484,44.875 h 2.08594 c -0.14062,-0.546875 -0.51953,-0.769531 -0.98437,-0.769531 -0.50782,0 -0.91407,0.289062 -1.10157,0.769531 m 3.30469,0.933594 h -3.3789 c 0.14062,0.703125 0.71484,0.964844 1.21484,0.964844 0.62891,0 0.89844,-0.390625 0.89844,-0.390625 h 1.16406 c -0.34766,0.925781 -1.19141,1.4375 -2.10156,1.4375 -1.25,0 -2.34375,-0.957032 -2.34375,-2.398438 0,-1.4375 1.08593,-2.324219 2.30859,-2.324219 1.18359,0 2.38672,0.824219 2.23828,2.710938"
         id="path2906" />
      <path
         style="fill:#171c61;fill-opacity:1;fill-rule:nonzero;stroke:none"
         d="m 110.22656,45.828125 v -0.09375 c -0.84375,0.09375 -1.67578,0.195313 -1.67578,0.675781 0,0.703125 1.60156,0.648438 1.67578,-0.582031 m 1.6875,1.054688 v 0.890625 h -0.28125 c -0.53515,0 -0.91406,-0.195313 -1.07031,-0.59375 -0.28125,0.378906 -0.74219,0.640625 -1.46484,0.640625 -1.04688,0 -1.71485,-0.539063 -1.71485,-1.371094 0,-1.445313 1.97266,-1.574219 2.86328,-1.621094 -0.0195,-0.539062 -0.3164,-0.730469 -0.78906,-0.730469 -0.65625,0 -0.70312,0.394532 -0.70312,0.394532 h -1.15625 c 0.082,-0.820313 0.75781,-1.394532 1.88672,-1.394532 1.10156,0 1.88281,0.542969 1.88281,1.886719 v 1.234375 c 0,0.535156 0.19531,0.664063 0.54687,0.664063"
         id="path2908" />
      <path
         style="fill:#171c61;fill-opacity:1;fill-rule:nonzero;stroke:none"
         d="m 115.5625,43.097656 v 1.183594 c -0.0937,-0.01953 -0.25,-0.03906 -0.41016,-0.03906 -0.64453,0 -1.32421,0.335937 -1.32421,1.1875 v 2.34375 h -1.23047 v -4.632813 h 0.94531 l 0.16797,0.511719 h 0.14844 c 0.20312,-0.203125 0.65625,-0.554688 1.41406,-0.554688 z m 0,0"
         id="path2910" />
      <path
         style="fill:#171c61;fill-opacity:1;fill-rule:nonzero;stroke:none"
         d="m 118.18359,47.820313 c -1.28906,0 -2.34375,-0.992188 -2.34375,-2.351563 0,-1.382812 1.09375,-2.371094 2.39063,-2.371094 1.05469,0 1.95312,0.65625 2.21094,1.738282 h -1.25782 c -0.19531,-0.378907 -0.53906,-0.621094 -0.98437,-0.621094 -0.64453,0 -1.16406,0.519531 -1.16406,1.242187 0,0.722657 0.51953,1.242188 1.16406,1.242188 0.41797,0 0.74219,-0.214844 0.94531,-0.554688 h 1.26953 c -0.29687,1.101563 -1.25,1.675782 -2.23047,1.675782"
         id="path2912" />
      <g
         clip-path="url(#clip8)"
         clip-rule="nonzero"
         id="g2916">
        <path
           style="fill:#171c61;fill-opacity:1;fill-rule:nonzero;stroke:none"
           d="m 125.62109,45.261719 v 2.511719 h -1.24218 v -2.234375 c 0,-0.453125 0.0742,-1.371094 -0.75782,-1.371094 -0.41015,0 -1.19531,0.214844 -1.19531,1.429687 v 2.175782 h -1.24219 v -6.574219 h 1.17579 V 43.625 h 0.16015 c 0.22266,-0.234375 0.64844,-0.527344 1.33203,-0.527344 1.19532,0 1.76953,0.886719 1.76953,2.164063"
           id="path2914" />
      </g>
      <path
         style="fill:#171c61;fill-opacity:1;fill-rule:nonzero;stroke:none"
         d="m 93.292969,55.316406 c -0.367188,1.242188 -1.40625,1.992188 -2.65625,1.992188 -1.695313,0 -2.925781,-1.390625 -2.925781,-3.289063 0,-1.898437 1.222656,-3.289062 2.917968,-3.289062 1.238282,0 2.296875,0.75 2.664063,1.992187 h -1.394531 c -0.242188,-0.519531 -0.679688,-0.769531 -1.253907,-0.769531 -1.054687,0 -1.65625,0.863281 -1.65625,2.066406 0,1.203125 0.613282,2.066407 1.675782,2.066407 0.574218,0 0.992187,-0.25 1.234375,-0.769532 z m 0,0"
         id="path2918" />
      <path
         style="fill:#171c61;fill-opacity:1;fill-rule:nonzero;stroke:none"
         d="m 97.324219,54.945313 c 0,-0.722657 -0.425781,-1.285157 -1.128906,-1.285157 -0.707032,0 -1.175782,0.5625 -1.175782,1.285157 0,0.722656 0.46875,1.289062 1.175782,1.289062 0.703125,0 1.128906,-0.566406 1.128906,-1.289062 m -3.519531,0.0078 c 0,-1.480469 1.148437,-2.371094 2.390625,-2.371094 1.25,0 2.339843,0.902344 2.339843,2.355469 0,1.472656 -1.128906,2.371094 -2.378906,2.371094 -1.257812,0 -2.351562,-0.898438 -2.351562,-2.355469"
         id="path2920" />
      <path
         style="fill:#171c61;fill-opacity:1;fill-rule:nonzero;stroke:none"
         d="m 103.76172,52.628906 v 4.632813 h -0.92578 l -0.16797,-0.519531 h -0.12109 c -0.1836,0.230468 -0.58985,0.566406 -1.35157,0.566406 -1.230466,0 -1.859372,-0.871094 -1.859372,-2.167969 v -2.511719 h 1.257812 v 2.234375 c 0,0.574219 0.0469,1.371094 0.84375,1.371094 0.40625,0 1.07422,-0.214844 1.07422,-1.429687 v -2.175782 z m 0,0"
         id="path2922" />
      <path
         style="fill:#171c61;fill-opacity:1;fill-rule:nonzero;stroke:none"
         d="m 109.30078,54.75 v 2.511719 h -1.23047 v -2.234375 c 0,-0.15625 0.10938,-1.320313 -0.78125,-1.371094 -0.43359,-0.02344 -1.21093,0.214844 -1.21093,1.429688 v 2.175781 h -1.22266 v -4.632813 h 0.94531 l 0.15625,0.566407 h 0.15625 c 0.19531,-0.230469 0.63281,-0.609375 1.41016,-0.609375 1.19531,0 1.77734,0.886718 1.77734,2.164062"
         id="path2924" />
      <path
         style="fill:#171c61;fill-opacity:1;fill-rule:nonzero;stroke:none"
         d="m 112.44141,57.308594 c -1.28907,0 -2.34375,-0.992188 -2.34375,-2.351563 0,-1.382812 1.09375,-2.371093 2.39062,-2.371093 1.05469,0 1.95313,0.65625 2.21094,1.738281 h -1.25781 c -0.19532,-0.378906 -0.53907,-0.621094 -0.98438,-0.621094 -0.64844,0 -1.16406,0.519531 -1.16406,1.242188 0,0.722656 0.51562,1.242187 1.16406,1.242187 0.41797,0 0.74219,-0.214844 0.94531,-0.554687 h 1.26954 c -0.29688,1.101562 -1.25,1.675781 -2.23047,1.675781"
         id="path2926" />
      <path
         style="fill:#171c61;fill-opacity:1;fill-rule:nonzero;stroke:none"
         d="m 116.80469,57.261719 h -1.1875 v -4.632813 h 1.1875 z m -1.39063,-5.925781 c 0,-0.445313 0.35938,-0.789063 0.79688,-0.789063 0.42578,0 0.77734,0.34375 0.77734,0.789063 0,0.414062 -0.35156,0.777343 -0.77734,0.777343 -0.4375,0 -0.79688,-0.363281 -0.79688,-0.777343"
         id="path2928" />
      <path
         style="fill:#171c61;fill-opacity:1;fill-rule:nonzero;stroke:none"
         d="m 119.02734,57.261719 h -1.20703 v -6.578125 h 1.20703 z m 0,0"
         id="path2930" />
      <g
         clip-path="url(#clip9)"
         clip-rule="nonzero"
         id="g2934">
        <path
           style="fill:#171c61;fill-opacity:1;fill-rule:nonzero;stroke:none"
           d="M 48.050781,60.855469 H 15.40625 V 28.207031 h 32.644531 z m 0,0"
           id="path2932" />
      </g>
      <path
         style="fill:#ffffff;fill-opacity:1;fill-rule:nonzero;stroke:none"
         d="m 40.652344,44.53125 h -5.117188 v -5.464844 z m -4.460938,10.160156 h -4.464843 v 1.78125 l -3.136719,-4.113281 c 2.390625,-0.441406 3.625,-1.675781 3.625,-3.832031 0,-0.53125 -0.07813,-1.003906 -0.226563,-1.425781 h 4.203125 z M 22.804688,47.101563 h 3.480468 c 1.433594,0 2.015625,0.554687 2.015625,1.425781 0,0.871094 -0.582031,1.445312 -2.015625,1.445312 h -3.480468 z m 8.921875,-6.464844 v 5.90625 c -0.808594,-1.367188 -2.671875,-2.003906 -5.441407,-2.011719 2.472657,-0.25 4.753907,-1.582031 5.441407,-3.894531 M 44.457031,31.800781 H 40.652344 L 35.535156,37.25 v -5.449219 h -7.394531 v 7.234375 c 0,1.546875 -1.148437,2.445313 -2.667969,2.445313 -1.523437,0 -2.667968,-0.898438 -2.667968,-2.445313 v -7.234375 h -3.808594 v 7.289063 c 0,3.265625 2.636719,5.136719 5.609375,5.441406 h -5.609375 v 12.730469 h 3.808594 v -4.71875 h 1.664062 l 3.515625,4.71875 h 16.472656 v -2.570313 h -4.460937 v -7.589843 h 4.460937 V 43.742188 L 39,38.15625 44.457031,32.589844 Z m 0,0"
         id="path2936" />
      <g
         clip-path="url(#clip10)"
         clip-rule="nonzero"
         id="g2940">
        <path
           style="fill:#00b8cc;fill-opacity:1;fill-rule:nonzero;stroke:none"
           d="m 54.667969,28.207031 -3.992188,-4.089843 h -2.625 V 60.855469 H 70.597656 V 44.519531 Z m 0,0"
           id="path2938" />
      </g>
      <g
         clip-path="url(#clip11)"
         clip-rule="nonzero"
         id="g2944">
        <path
           style="fill:#0094ab;fill-opacity:1;fill-rule:nonzero;stroke:none"
           d="m 54.667969,28.207031 15.929687,16.3125 V 60.855469 H 80.699219 V 28.207031 Z m 0,0"
           id="path2942" />
      </g>
    </g>
  </g>
</svg>
